<svg xmlns="http://www.w3.org/2000/svg" width="40" height="92" fill="none"><path fill="#D1E7FF" d="M34.23 17.004c.797 1.29-.158 2.91-1.75 2.968a43.86 43.86 0 0 0-17.327 4.245l-1.848.997c0 .008-.025-.04 4.473 7.278.412.67.167 1.525-.548 1.912l-1.457.787c-.715.386-1.63.157-2.043-.513l-4.486-7.27-.729.394c-1.43.772-3.26.314-4.086-1.025l-3.365-5.451C.24 19.987.73 18.276 2.16 17.503l6.637-3.585c5.072-3.07 9.37-7.135 12.593-11.916.85-1.26 2.827-1.224 3.623.066l2.879 4.666c1.654-.893 3.77-.363 4.725 1.185.955 1.547.388 3.526-1.266 4.42l2.88 4.665Z"/><path fill="#D1E7FF" d="M32.617 7.919c.955 1.547.388 3.526-1.266 4.42l-3.46-5.605c1.655-.893 3.77-.363 4.726 1.185Z"/><path fill="#E8F3FF" d="M25.013 2.068a1.854 1.854 0 0 1-.068 2.064c-3.547 5-8.3 9.517-14.114 13.036l-7.777 4.2c-.534.29-.957.69-1.252 1.151l-.738-1.194C.24 19.987.73 18.275 2.16 17.503l6.637-3.586c5.072-3.07 9.37-7.134 12.593-11.915.85-1.26 2.826-1.224 3.623.066Z"/><path fill="#B9DCFF" d="m8.797 13.918 6.356 10.3c-1.274.687-5.366 2.896-6.638 3.584-1.43.773-3.26.314-4.086-1.024l-3.365-5.452C.24 19.987.73 18.276 2.16 17.503l6.637-3.585Z"/><path fill="#D1E7FF" d="M10.81 17.18c-8.446 4.56-7.886 4.243-8.159 4.442-.513.373-1.262.23-1.587-.297-.825-1.338-.335-3.05 1.095-3.822l6.638-3.585 2.013 3.261Z"/><path fill="#B9DCFF" d="M14.515 27.183c-2.363 1.28-.624.338-4.057 2.191l-1.214-1.966 4.061-2.193 1.21 1.968ZM32.41 11.45c-.274.351-.63.657-1.06.888l-3.458-5.604c.43-.232.89-.367 1.353-.414l3.165 5.13Z"/><path fill="#007FFC" d="M32.231 12.521c2.593-1.98 1.697-5.898-1.543-6.71a4.358 4.358 0 0 0-2.526.118l-2.574-4.171C24.541.06 21.943.016 20.828 1.67c-3.167 4.697-7.384 8.693-12.392 11.725a.599.599 0 0 0-.222.818c.027.047 4.29 6.955 4.319 7 .183.298.59.4.907.228a.6.6 0 0 0 .243-.849l-3.998-6.479c4.775-2.986 9.004-6.94 12.266-11.78.584-.867 1.94-.84 2.486.045l9.218 14.935c.547.887-.11 1.998-1.2 2.038a44.547 44.547 0 0 0-17.605 4.312c-.023.01-6.24 3.369-6.667 3.6-1.111.6-2.537.243-3.179-.797L1.64 21.015c-.642-1.04-.26-2.374.851-2.974l4.05-2.187a.6.6 0 0 0 .243-.85.69.69 0 0 0-.907-.226l-4.05 2.187C.08 17.908-.52 20.003.489 21.636l3.365 5.453c1.008 1.633 3.248 2.194 4.993 1.251l.154-.083 4.154 6.732c.597.967 1.916 1.298 2.95.74l1.457-.787c1.034-.559 1.388-1.793.79-2.76L15.41 27.41a.69.69 0 0 0-.908-.228.6.6 0 0 0-.243.85l2.944 4.77c.23.372.094.847-.304 1.062l-1.457.787c-.398.215-.906.088-1.135-.285l-4.155-6.731 5.32-2.873a43.143 43.143 0 0 1 17.035-4.17c2.093-.076 3.345-2.206 2.3-3.9L32.23 12.52Zm-.19-4.292c.656 1.063.42 2.382-.487 3.195L28.84 7.026c1.19-.327 2.535.123 3.201 1.203Zm6.498-2.763-1.72.929a.69.69 0 0 1-.907-.228.6.6 0 0 1 .244-.849l1.718-.928a.69.69 0 0 1 .908.227.6.6 0 0 1-.243.85Zm-7.392-3.542.419-1.463c.095-.332.459-.528.814-.44.354.09.564.43.47.761l-.42 1.464c-.095.33-.458.528-.814.44-.354-.09-.564-.43-.47-.762Zm8.688 10.178a.66.66 0 0 1-.641.46c-.12 0-.036.014-1.737-.412-.354-.09-.564-.43-.47-.762.096-.331.46-.528.814-.44l1.564.393c.355.089.565.43.47.761Z"/><path fill="#E1F4F5" d="M34.23 73.004c.797 1.29-.158 2.91-1.75 2.968a43.86 43.86 0 0 0-17.327 4.245l-1.848.997c0 .008-.025-.04 4.473 7.278.412.67.167 1.525-.548 1.912l-1.457.787c-.715.386-1.63.157-2.043-.513l-4.486-7.27-.729.394c-1.43.772-3.26.314-4.086-1.025l-3.365-5.451C.24 75.987.73 74.276 2.16 73.503l6.637-3.585c5.072-3.07 9.37-7.135 12.593-11.916.85-1.26 2.827-1.224 3.623.066l2.879 4.666c1.654-.893 3.77-.363 4.725 1.185.955 1.547.388 3.526-1.266 4.42l2.88 4.665Z"/><path fill="#E1F4F5" d="M32.617 63.919c.955 1.547.388 3.526-1.266 4.42l-3.46-5.605c1.655-.893 3.77-.363 4.726 1.185Z"/><path fill="#F4FEFF" d="M25.013 58.068a1.854 1.854 0 0 1-.068 2.064c-3.547 5-8.3 9.517-14.114 13.036l-7.777 4.2c-.534.29-.957.69-1.252 1.151l-.738-1.194C.24 75.987.73 74.275 2.16 73.503l6.637-3.586c5.072-3.07 9.37-7.134 12.593-11.915.85-1.26 2.826-1.224 3.623.066Z"/><path fill="#CAEFF2" d="m8.797 69.918 6.356 10.3-6.638 3.584c-1.43.772-3.26.314-4.086-1.024l-3.365-5.452C.24 75.987.73 74.276 2.16 73.503l6.637-3.585Z"/><path fill="#E1F4F5" d="M10.81 73.18c-8.446 4.56-7.886 4.243-8.159 4.442-.513.373-1.262.23-1.587-.297-.825-1.338-.335-3.05 1.095-3.822l6.638-3.585 2.013 3.261Z"/><path fill="#CAEFF2" d="M14.515 83.183c-2.363 1.28-.624.338-4.057 2.191l-1.214-1.966 4.061-2.193 1.21 1.968ZM32.41 67.45c-.274.351-.63.657-1.06.888l-3.458-5.604c.43-.232.89-.367 1.353-.414l3.165 5.13Z"/><path fill="#52C29D" d="M32.231 68.522c2.593-1.982 1.697-5.9-1.543-6.711a4.357 4.357 0 0 0-2.526.118l-2.574-4.171c-1.047-1.697-3.645-1.742-4.76-.088-3.167 4.698-7.384 8.694-12.392 11.726a.599.599 0 0 0-.222.818c.027.047 4.29 6.955 4.319 7 .183.298.59.4.907.228a.6.6 0 0 0 .243-.849l-3.998-6.479c4.775-2.986 9.004-6.94 12.266-11.78.584-.867 1.94-.84 2.486.045l9.218 14.935c.547.887-.11 1.998-1.2 2.038a44.547 44.547 0 0 0-17.605 4.312c-.023.01-6.24 3.369-6.667 3.6-1.111.6-2.537.243-3.179-.797L1.64 77.015c-.642-1.04-.26-2.374.851-2.974l4.05-2.187a.6.6 0 0 0 .243-.85.69.69 0 0 0-.907-.227l-4.05 2.188C.08 73.908-.52 76.003.489 77.636l3.365 5.453c1.008 1.633 3.248 2.194 4.993 1.251l.154-.083 4.154 6.732c.597.967 1.916 1.298 2.95.74l1.457-.787c1.034-.559 1.388-1.793.79-2.76L15.41 83.41a.69.69 0 0 0-.908-.228.6.6 0 0 0-.243.85l2.944 4.77c.23.372.094.847-.304 1.062l-1.457.787c-.398.215-.906.088-1.135-.284l-4.155-6.732 5.32-2.873a43.143 43.143 0 0 1 17.035-4.17c2.093-.076 3.345-2.206 2.3-3.9l-2.575-4.171Zm-.19-4.293c.656 1.063.42 2.382-.487 3.195l-2.714-4.398c1.19-.327 2.535.123 3.201 1.203Zm6.498-2.763-1.72.928a.69.69 0 0 1-.907-.227.6.6 0 0 1 .244-.849l1.718-.928a.69.69 0 0 1 .908.227.6.6 0 0 1-.243.85Zm-7.392-3.542.419-1.463c.095-.332.459-.528.814-.44.354.09.564.43.47.761l-.42 1.464c-.095.33-.458.528-.814.44-.354-.09-.564-.43-.47-.762Zm8.688 10.178a.66.66 0 0 1-.641.46c-.12 0-.036.014-1.737-.412-.354-.09-.564-.43-.47-.762.096-.331.46-.528.814-.44l1.564.393c.355.089.565.43.47.761Z"/></svg>